<svg width="36" height="47" viewBox="0 0 36 47" fill="none" xmlns="http://www.w3.org/2000/svg">
<path d="M35.9366 0.00767849V7.7567C35.9366 15.2027 35.9584 22.6486 35.9141 30.0946C35.9068 31.4364 36.5333 33.088 34.5059 33.7958C34.2038 33.8993 34.1378 34.9238 34.1231 35.5282C34.0789 37.6439 34.012 39.7597 34.1299 41.868C34.2258 43.5858 33.5548 44.0728 31.9034 44.1171C30.9451 44.1393 30.0017 44.8469 29.0508 45.245C29.0214 45.5692 28.9836 45.8934 28.9542 46.2176C27.443 45.1414 25.9313 44.0726 24.3243 42.9374C22.8573 44.0358 21.4195 45.1193 19.9747 46.203C19.9894 45.9229 20.0049 45.6354 20.0196 45.3553C18.7884 44.9204 17.5786 44.1908 16.3253 44.1171C13.207 43.9328 10.074 44.0944 6.9483 44.0428C2.42181 43.9691 0.0619435 41.7284 0.0322874 37.2684C-0.011947 27.0576 -0.0185356 16.8537 0.0625608 6.65026C0.0920894 2.29324 2.45829 0.0302357 6.76373 0.015491C16.3184 -0.0139985 25.8733 0.00767849 35.9366 0.00767849ZM20.8965 42.9598C21.0366 43.2399 21.177 43.5274 21.3096 43.8075C23.5066 39.4725 25.7179 41.6769 27.9444 43.4979V33.6483H20.8965V42.9598ZM19.046 33.663C14.4015 33.6629 9.84548 33.5008 5.31158 33.7294C3.02614 33.8473 1.76509 35.661 1.70612 37.9022C1.63987 40.1653 2.90049 42.089 5.1192 42.2294C9.71952 42.5316 14.3572 42.3182 19.046 42.3182V33.663ZM29.795 42.2665H32.3975V33.6776H29.795V42.2665ZM5.30377 1.68151C2.48046 2.55143 1.63979 4.3427 1.63971 6.76061C1.64708 14.9292 1.64015 23.091 1.64752 31.2596C1.64754 31.9304 1.73601 32.6012 1.79498 33.412C3.12183 32.7854 4.18329 32.2914 5.30377 31.7606V1.68151ZM7.11041 31.7684H34.1817V1.69616H7.11041V31.7684ZM11.9981 12.6444C12.2561 10.5359 20.6534 6.15674 22.5186 7.18151C24.4427 8.2431 26.2788 9.48095 28.2471 10.4393C29.928 11.2577 30.4071 12.3714 30.1417 14.1776C29.456 18.8148 27.5907 22.7074 23.794 25.6268C21.9362 27.057 20.373 27.2048 18.4268 25.701C14.372 22.5751 12.381 18.4678 11.9903 13.5799C11.9903 13.1896 11.9613 12.9096 11.9981 12.6444ZM20.1739 8.70006C18.0138 9.94595 16.1041 10.9707 14.2979 12.1503C13.8926 12.4158 13.6204 13.2343 13.6573 13.7723C13.9891 18.3136 15.9054 21.985 20.1739 24.9413V8.70006ZM22.0245 24.8085C26.3667 22.066 28.0331 18.2695 28.5049 13.8241C28.5639 13.2564 28.1584 12.371 27.6866 12.0614C25.9615 10.9187 24.1185 9.9529 22.0323 8.75866C22.0249 14.2142 22.0245 19.2866 22.0245 24.8085Z" fill="#B59F65"/>
</svg>
