<svg width="39" height="46" viewBox="0 0 39 46" fill="none" xmlns="http://www.w3.org/2000/svg">
<g clip-path="url(#clip0_410_646)">
<path d="M15.9616 26.4695C12.1431 25.7771 8.30957 25.9426 4.48355 26.3641C4.48355 26.6576 4.47607 26.9511 4.47607 27.2447C8.30209 27.2447 12.1281 27.2447 15.9541 27.2447C15.9541 26.9888 15.9541 26.7254 15.9616 26.4695Z" fill="#B59F65"/>
<path d="M33.9259 38.2708C33.7465 40.2728 33.5672 42.2747 33.3654 44.495C24.6224 44.495 16.0586 44.5175 7.48747 44.4573C6.71778 44.4498 5.95556 43.8703 5.19335 43.5542C5.97798 43.1854 6.75514 42.5005 7.53977 42.4855C14.8107 42.4027 22.0891 42.4629 29.3675 42.3952C30.1522 42.3876 31.4524 41.9812 31.6019 41.477C31.8783 40.5588 31.4823 39.4298 31.3627 38.3837C31.0862 38.3988 30.8097 38.4213 30.5258 38.4364C30.2941 39.174 30.0625 39.919 29.8383 40.6416C20.4675 40.6416 11.1865 40.6416 1.81569 40.6416C1.81569 27.6288 1.81569 14.8042 1.81569 1.89679C11.306 1.89679 20.6394 1.89679 30.4884 1.89679C30.4884 7.55648 30.4884 12.9377 30.4884 18.3264C30.8023 18.3264 31.1236 18.334 31.4375 18.334C31.5421 17.491 31.7289 16.6556 31.7364 15.8127C31.7737 12.9001 31.7065 9.98743 31.7961 7.08233C31.8186 6.4125 32.3342 5.76525 32.6181 5.10294C32.8946 5.1782 33.1786 5.24594 33.4551 5.3212C33.9558 13.5097 33.1861 21.7734 34.4265 29.9544C35.0468 28.9986 35.1813 28.0503 35.1887 27.0944C35.2112 20.5241 35.129 13.9462 35.2336 7.37585C35.271 4.975 35.256 2.96551 31.7812 3.59018C32.4313 0.2034 30.6229 -0.0299119 28.1196 0.0152452C19.7352 0.14319 11.3359 0.180821 2.94407 0.0453499C0.500494 0.00771903 -0.0151217 0.903334 -0.000176333 3.13108C0.0820233 15.4364 0.0371871 27.7342 0.0521325 40.0395C0.0521325 40.762 0.186641 41.477 0.268841 42.2371C1.44205 42.3876 2.4135 42.5081 3.38496 42.636C3.57177 43.795 3.7287 44.781 3.92299 46.0002C13.9364 46.0002 23.8078 46.0077 33.6793 45.9701C34.1575 45.9701 35.0318 45.5637 35.0393 45.3153C35.1439 42.9897 35.0991 40.6566 35.0991 38.331C34.7105 38.3084 34.3144 38.2934 33.9259 38.2708Z" fill="#B59F65"/>
<path d="M37.9314 34.086C37.2589 33.2883 36.0259 32.9797 35.0545 32.4227C32.85 31.1508 30.653 29.8563 28.2319 28.4414C28.9418 27.6587 29.1436 27.3426 29.42 27.1394C33.3731 24.2945 33.3208 22.0592 29.2482 19.7261C28.4411 19.267 27.6415 18.7853 26.827 18.3187C23.3597 16.3544 21.641 17.5059 20.5126 21.3216C19.6682 24.174 18.0615 27.0566 16.0514 29.2316C13.3762 32.1292 13.2641 34.2215 16.7314 36.2159C17.6207 36.7277 18.5099 37.2395 19.3992 37.7513C22.9786 39.7984 25.1232 38.677 25.6314 34.5075C25.6912 33.9882 25.7734 33.4689 25.9004 32.5206C27.2305 33.07 28.3589 33.4162 29.3677 33.9882C31.5572 35.2225 33.6048 36.7503 35.8765 37.7889C36.6686 38.1502 37.9464 37.3975 39.0075 37.1567C38.6638 36.1106 38.5816 34.8537 37.9314 34.086ZM23.823 18.4993C26.1918 19.8615 28.4038 21.1335 30.9146 22.571C30.3392 23.6021 29.831 24.5127 29.1959 25.6567C26.8046 24.2945 24.5852 23.0376 22.0296 21.585C22.7096 20.426 23.2028 19.5756 23.823 18.4993ZM22.4032 37.5782C20.0194 36.2235 17.8075 34.9591 15.3191 33.5441C15.9318 32.4754 16.4549 31.5572 17.0901 30.4509C19.4888 31.8206 21.7008 33.0926 24.2489 34.5527C23.5465 35.6891 23.0384 36.532 22.4032 37.5782ZM24.2938 32.6335C22.3359 31.5347 20.662 30.5939 18.5622 29.4123C19.8102 27.2598 20.8638 25.446 22.0146 23.4515C24.0173 24.5955 25.6837 25.5438 27.649 26.6652C26.4907 28.7274 25.4595 30.5638 24.2938 32.6335ZM37.1468 36.7578C34.636 35.2451 32.1252 33.7398 29.6143 32.2271C29.7339 31.9937 29.8609 31.7604 29.9805 31.5196C32.5586 32.9195 35.1367 34.3269 37.7222 35.7267C37.5279 36.0729 37.3411 36.4191 37.1468 36.7578Z" fill="#B59F65"/>
<path d="M4.125 10.5592C12.0984 10.5592 19.6906 10.5592 27.6341 10.5592C25.6314 8.79054 6.20241 8.77549 4.125 10.5592Z" fill="#B59F65"/>
<path d="M27.2527 13.9309C19.6529 13.9309 12.0532 13.9309 4.46094 13.9309C4.46094 14.2019 4.46841 14.4728 4.46841 14.7437C12.0831 14.7437 19.6903 14.7437 27.305 14.7437C27.2826 14.4728 27.2676 14.2019 27.2527 13.9309Z" fill="#B59F65"/>
<path d="M25.3995 5.46387C18.9581 5.46387 12.8305 5.46387 6.29932 5.46387C8.45145 7.24005 23.4865 7.19489 25.3995 5.46387Z" fill="#B59F65"/>
<path d="M20.0863 18.0703C14.8779 18.0703 9.66941 18.0703 4.46094 18.0703C4.46094 18.3413 4.46094 18.6122 4.46094 18.8756C9.66941 18.8756 14.8779 18.8756 20.0863 18.8756C20.0863 18.6047 20.0863 18.3413 20.0863 18.0703Z" fill="#B59F65"/>
<path d="M18.8087 22.2773C14.0412 22.2773 9.26612 22.2773 4.49854 22.2773C4.49854 22.5408 4.50601 22.8117 4.50601 23.0751C9.27359 23.0751 14.0412 23.0751 18.8087 23.0751C18.8087 22.8117 18.8087 22.5408 18.8087 22.2773Z" fill="#B59F65"/>
<path d="M4.55065 31.4443C7.21841 31.4443 9.87869 31.4443 12.5464 31.4443C12.5464 31.1809 12.539 30.925 12.539 30.6616C9.85627 30.6616 7.1661 30.6616 4.4834 30.6616C4.50582 30.925 4.52823 31.1885 4.55065 31.4443Z" fill="#B59F65"/>
</g>
<defs>
<clipPath id="clip0_410_646">
<rect width="39" height="46" fill="white"/>
</clipPath>
</defs>
</svg>
