<svg width="36" height="46" viewBox="0 0 36 46" fill="none" xmlns="http://www.w3.org/2000/svg">
<g clip-path="url(#clip0_410_625)">
<path d="M29.031 0.0434516C20.681 -0.0146475 12.324 -0.00738514 3.97406 0.0289268C1.0639 0.0434516 0.028078 1.1546 0.0210316 4.19028C-0.00715395 15.6939 -0.00010756 27.1975 0.0210316 38.7084C0.028078 41.3156 3.76266 45.4988 6.25709 45.5496C11.1825 45.644 16.1079 45.5787 21.0263 45.5496C21.3786 45.5496 21.731 45.2591 22.0833 45.0993C22.0833 44.8742 22.0833 44.6563 22.0833 44.4312C21.3223 44.3077 20.5683 44.0826 19.8073 44.0753C15.8543 44.039 11.8871 43.9446 7.94117 44.0899C5.48903 44.1843 4.50253 43.4145 4.53072 40.7201C4.65051 29.7612 4.63642 18.795 4.53777 7.836C4.50253 5.26511 5.28468 4.28469 7.84957 4.321C15.6711 4.44446 23.4996 4.42267 31.3281 4.321C33.7028 4.29195 34.654 5.14165 34.6047 7.63265C34.492 13.2465 34.5554 18.8676 34.5765 24.4814C34.5765 25.3892 34.7174 26.297 34.795 27.2048C35.1332 27.1975 35.4714 27.1975 35.8096 27.1903C35.8731 26.3406 35.9858 25.4909 35.9858 24.6412C35.9999 18.8458 36.0069 13.0431 35.9858 7.24775C35.9788 3.86347 32.3851 0.0652388 29.031 0.0434516ZM31.011 2.74506C30.1443 2.7959 29.2776 2.88305 28.4109 2.88305C21.4632 2.89757 14.5155 2.87578 7.56771 2.89757C3.91768 2.90483 3.07212 3.78358 3.06507 7.53098C3.05098 17.6765 3.06507 27.8294 3.06507 37.9749C3.06507 38.9481 3.06507 39.914 3.06507 40.8871C2.76912 40.9307 2.46613 40.9816 2.17018 41.0251C1.95174 40.1609 1.55714 39.2894 1.5501 38.4252C1.50077 27.1031 1.53601 15.7738 1.50077 4.44446C1.49373 2.59981 1.99402 1.51772 4.01633 1.53224C12.3734 1.57582 20.7233 1.54677 29.0803 1.57582C29.7286 1.57582 30.3769 1.85905 31.0251 2.0043C31.0181 2.25122 31.0181 2.49814 31.011 2.74506Z" fill="#B59F65"/>
<path d="M31.9764 27.9021C29.496 25.9268 26.0504 26.0067 23.7039 28.0837C21.3434 30.1753 20.4908 33.8791 22.2735 36.4282C23.6405 38.389 23.7955 40.3499 23.7321 42.5286C23.7039 43.4727 23.8026 44.4241 23.873 46C25.5501 44.8889 26.7479 44.0973 28.0022 43.2621C29.1649 44.0828 30.2923 44.8744 31.8495 45.971C32.0046 44.9179 32.1314 44.4967 32.1243 44.0755C32.0891 41.2141 31.9552 38.5125 33.8366 35.8835C35.5559 33.4942 34.358 29.7976 31.9764 27.9021ZM30.4896 42.2163C28.8196 42.2163 27.1919 42.2163 25.388 42.2163C25.388 41.7878 25.388 40.7929 25.388 39.8052C27.213 39.8052 28.7562 39.8052 30.4896 39.8052C30.4896 40.6767 30.4896 41.7007 30.4896 42.2163ZM27.7274 38.4762C25.0639 38.3745 22.8654 35.898 22.9358 33.0657C23.0134 30.2116 25.2753 27.9965 28.0656 28.0546C30.7996 28.1127 33.0826 30.5166 33.0404 33.2908C32.9981 36.174 30.5319 38.5779 27.7274 38.4762Z" fill="#B59F65"/>
<path d="M7.98359 20.3927C11.9014 20.5162 15.8262 20.4654 20.0893 20.4654C20.0893 16.1442 20.1316 12.1064 20.0329 8.07572C20.0188 7.61093 19.2719 6.76849 18.8491 6.76123C14.9313 6.65956 11.0065 6.70313 6.74343 6.70313C6.74343 11.0751 6.6941 14.9459 6.7998 18.8168C6.81389 19.376 7.55376 20.3782 7.98359 20.3927ZM8.46275 8.28633C11.7886 8.28633 15.0018 8.28633 18.4404 8.28633C18.4404 11.7578 18.4404 15.2147 18.4404 18.8095C15.1216 18.8095 11.8943 18.8095 8.46275 18.8095C8.46275 15.3309 8.46275 11.8812 8.46275 8.28633Z" fill="#B59F65"/>
<path d="M13.9165 35.1934C14.8818 32.6516 13.8953 30.6399 10.9006 29.4488C10.4215 29.26 9.70273 29.3326 9.25176 29.5796C9.04037 29.6958 9.06151 30.589 9.23062 31.0248C9.70273 32.2303 10.3087 33.3851 10.8795 34.6051C9.89298 35.0482 9.11788 35.3895 8.34277 35.7381C8.34982 36.0358 8.36391 36.3409 8.37096 36.6386C11.7532 36.2682 15.361 37.9894 18.3134 34.2493C16.8266 34.5761 15.3398 34.8884 13.9165 35.1934Z" fill="#B59F65"/>
<path d="M6.65186 25.0334C12.7681 25.0334 18.6237 25.0334 24.4722 25.0334C21.9284 23.3268 8.16683 23.5955 6.65186 25.0334Z" fill="#B59F65"/>
<path d="M33.1109 11.3946C30.6869 9.82592 23.3868 9.8695 21.4209 11.3946C25.3951 11.3946 28.9676 11.3946 33.1109 11.3946Z" fill="#B59F65"/>
<path d="M21.7803 14.9678C21.7803 15.2292 21.7803 15.4907 21.7803 15.7448C25.3528 15.7448 28.9324 15.7448 32.5049 15.7448C32.4978 15.4834 32.4908 15.222 32.4837 14.9678C28.9183 14.9678 25.3457 14.9678 21.7803 14.9678Z" fill="#B59F65"/>
<path d="M32.5542 20.0876C32.5542 19.8262 32.5542 19.5647 32.5542 19.3105C28.9817 19.3105 25.4021 19.3105 21.8296 19.3105C21.8366 19.572 21.8437 19.8262 21.8437 20.0876C25.4162 20.0876 28.9887 20.0876 32.5542 20.0876Z" fill="#B59F65"/>
<path d="M6.91232 39.9432C10.5483 39.9432 14.1771 39.9432 17.8131 39.9432C17.8131 39.6963 17.806 39.4566 17.806 39.2097C14.1701 39.2097 10.5412 39.2097 6.90527 39.2097C6.90527 39.4566 6.91232 39.6963 6.91232 39.9432Z" fill="#B59F65"/>
<path d="M30.9832 7.02271C28.4112 7.02271 25.8463 7.02271 23.2744 7.02271C23.2815 7.26236 23.2885 7.49476 23.3026 7.73442C25.8745 7.73442 28.4394 7.73442 31.0113 7.73442C30.9973 7.49476 30.9902 7.2551 30.9832 7.02271Z" fill="#B59F65"/>
</g>
<defs>
<clipPath id="clip0_410_625">
<rect width="36" height="46" fill="white"/>
</clipPath>
</defs>
</svg>
